<svg width="28" height="28" viewBox="0 0 28 28" fill="none" xmlns="http://www.w3.org/2000/svg">
    <path d="M28 8.064V22.3125C28.0001 23.7652 27.5554 25.163 26.7573 26.2189C25.9591 27.2749 24.8679 27.909 23.7076 27.9913L23.45 28H4.55C3.38781 28.0001 2.26964 27.4443 1.42488 26.4466C0.580113 25.4489 0.0727981 24.0849 0.00700016 22.6345L0 22.3125V8.064L13.5128 16.912C13.6631 17.0104 13.8303 17.0618 14 17.0618C14.1697 17.0618 14.3369 17.0104 14.4872 16.912L28 8.064ZM4.55 4.13089e-08H23.45C24.5778 -0.000169776 25.6655 0.523242 26.5021 1.46872C27.3386 2.41419 27.8645 3.71434 27.9776 5.117L14 14.2695L0.0224 5.117C0.130933 3.77005 0.62027 2.51566 1.40245 1.57931C2.18463 0.642965 3.20835 0.0860772 4.2896 0.00875024L4.55 4.13089e-08Z" fill="#1C1A14"/>
</svg>