<svg width="28" height="30" viewBox="0 0 28 30" fill="none" xmlns="http://www.w3.org/2000/svg">
    <path d="M22.75 0C24.1962 0 25.4327 0.55013 26.4596 1.65039C27.4865 2.75065 28 4.07552 28 5.625V24.375C28 25.9245 27.4865 27.2493 26.4596 28.3496C25.4327 29.4499 24.1962 30 22.75 30H19.3229V18.3789H22.9505L23.4974 13.8477H19.3229V10.957C19.3229 10.2279 19.4657 9.68099 19.7513 9.31641C20.0369 8.95182 20.5929 8.76953 21.4193 8.76953L23.6432 8.75V4.70703C22.8776 4.58984 21.796 4.53125 20.3984 4.53125C18.7457 4.53125 17.424 5.05208 16.4336 6.09375C15.4431 7.13542 14.9479 8.60677 14.9479 10.5078V13.8477H11.3021V18.3789H14.9479V30H5.25C3.80382 30 2.56727 29.4499 1.54036 28.3496C0.513455 27.2493 0 25.9245 0 24.375V5.625C0 4.07552 0.513455 2.75065 1.54036 1.65039C2.56727 0.55013 3.80382 0 5.25 0H22.75Z" fill="#1C1A14"/>
</svg>