<svg width="28" height="29" viewBox="0 0 28 29" fill="none" xmlns="http://www.w3.org/2000/svg">
    <path fill-rule="evenodd" clip-rule="evenodd" d="M8.4 0C6.17218 0 4.03561 0.916605 2.4603 2.54817C0.884998 4.17974 0 6.39262 0 8.7L0 20.3C0 22.6074 0.884998 24.8203 2.4603 26.4518C4.03561 28.0834 6.17218 29 8.4 29H19.6C21.8278 29 23.9644 28.0834 25.5397 26.4518C27.115 24.8203 28 22.6074 28 20.3V8.7C28 6.39262 27.115 4.17974 25.5397 2.54817C23.9644 0.916605 21.8278 0 19.6 0L8.4 0ZM7.46667 14.5C7.46667 12.7054 8.155 10.9842 9.38024 9.71524C10.6055 8.44625 12.2673 7.73333 14 7.73333C15.7327 7.73333 17.3945 8.44625 18.6198 9.71524C19.845 10.9842 20.5333 12.7054 20.5333 14.5C20.5333 16.2946 19.845 18.0158 18.6198 19.2848C17.3945 20.5538 15.7327 21.2667 14 21.2667C12.2673 21.2667 10.6055 20.5538 9.38024 19.2848C8.155 18.0158 7.46667 16.2946 7.46667 14.5ZM20.5333 7.73333H22.4V5.8H20.5333V7.73333Z" fill="#1C1A14"/>
</svg>
