<svg width="77" height="93" viewBox="0 0 73 93" fill="none" xmlns="http://www.w3.org/2000/svg">
<path d="M34.3529 54.0557C34.5867 53.7375 34.8932 53.4798 35.2468 53.3041C35.6005 53.1283 35.991 53.0397 36.3858 53.0455C36.7806 53.0514 37.1683 53.1515 37.5166 53.3376C37.8649 53.5236 38.1636 53.7903 38.3879 54.1152L42.3005 51.3966C43.0281 50.9005 44.0534 51.4297 44.0534 52.3226V58.7058C44.0534 59.5988 43.0281 60.1611 42.3005 59.6319L38.3912 56.9397C38.1667 57.266 37.8674 57.5338 37.5182 57.7207C37.169 57.9076 36.7802 58.0082 36.3842 58.014C35.9881 58.0198 35.5965 57.9307 35.242 57.7542C34.8874 57.5777 34.5803 57.3188 34.3463 56.9992L30.5263 59.6319C29.7987 60.1611 28.7734 59.5988 28.7734 58.7058V52.3226C28.7734 51.4297 29.7987 50.9005 30.5263 51.3966L34.3529 54.0557ZM36.4134 70.3808C36.852 70.3808 37.2726 70.2066 37.5828 69.8965C37.8929 69.5863 38.0671 69.1657 38.0671 68.7271C38.0671 68.2886 37.8929 67.8679 37.5828 67.5578C37.2726 67.2477 36.852 67.0735 36.4134 67.0735C35.9748 67.0735 35.5542 67.2477 35.2441 67.5578C34.934 67.8679 34.7598 68.2886 34.7598 68.7271C34.7598 69.1657 34.934 69.5863 35.2441 69.8965C35.5542 70.2066 35.9748 70.3808 36.4134 70.3808ZM38.0671 79.1453C38.0671 79.5839 37.8929 80.0045 37.5828 80.3146C37.2726 80.6248 36.852 80.799 36.4134 80.799C35.9748 80.799 35.5542 80.6248 35.2441 80.3146C34.934 80.0045 34.7598 79.5839 34.7598 79.1453C34.7598 78.7067 34.934 78.2861 35.2441 77.976C35.5542 77.6658 35.9748 77.4916 36.4134 77.4916C36.852 77.4916 37.2726 77.6658 37.5828 77.976C37.8929 78.2861 38.0671 78.7067 38.0671 79.1453ZM46.4579 22.4506C46.7886 22.6821 47.1855 22.8144 47.5493 22.8144C48.1115 22.8144 48.6407 22.5498 49.0045 22.1199C49.5999 21.3592 49.4676 20.2016 48.6738 19.6063C48.5746 19.5071 45.8295 17.4565 41.8937 17.9195C40.9015 18.0188 40.1739 18.9117 40.3062 19.9039C40.4054 20.8962 41.2984 21.6238 42.2906 21.4915C43.744 21.3058 45.2161 21.6422 46.4446 22.4407L46.4579 22.4506ZM44.1427 24.0381C46.2925 24.0381 48.1115 25.5265 48.6077 27.5109C48.7399 28.0731 48.31 28.6354 47.7147 28.6354H46.3322C46.4477 28.1985 46.4613 27.741 46.372 27.298C46.2826 26.8551 46.0927 26.4386 45.8169 26.0806C45.5411 25.7227 45.1868 25.4329 44.7812 25.2336C44.3757 25.0343 43.9298 24.9308 43.4779 24.9311C41.8573 24.9311 40.5344 26.2541 40.5675 27.8747C40.5675 28.1591 40.6005 28.384 40.6601 28.6354H40.4054C39.9424 28.6354 39.5786 28.2054 39.6447 27.7424C40.0747 25.6587 41.9268 24.0381 44.1427 24.0381Z" fill="#8CC63E"/>
<path d="M42.0748 26.9453C41.9058 27.198 41.8089 27.4919 41.7943 27.7954C41.7797 28.099 41.8481 28.4008 41.9921 28.6685H44.9687C45.1261 28.3651 45.188 28.0213 45.1463 27.6821C45.1046 27.343 44.9612 27.0243 44.7351 26.7681C44.509 26.512 44.2106 26.3302 43.8792 26.2467C43.5479 26.1632 43.199 26.1819 42.8785 26.3004C42.9413 26.3496 42.9921 26.4123 43.0272 26.4839C43.0624 26.5555 43.0809 26.6341 43.0813 26.7139C43.0818 26.7936 43.0642 26.8725 43.03 26.9445C42.9957 27.0165 42.9456 27.0798 42.8834 27.1297C42.8212 27.1796 42.7485 27.2148 42.6708 27.2327C42.593 27.2506 42.5123 27.2507 42.4345 27.2329C42.3568 27.2152 42.284 27.1801 42.2217 27.1303C42.1594 27.0805 42.1092 27.0173 42.0748 26.9453ZM30.7802 27.8747C30.7779 27.5983 30.708 27.3267 30.5766 27.0835C30.4451 26.8403 30.2562 26.633 30.0262 26.4797C29.7962 26.3264 29.5322 26.2317 29.2571 26.2039C28.9821 26.1761 28.7045 26.216 28.4485 26.3203C28.5064 26.3699 28.5529 26.4315 28.5848 26.5008C28.6166 26.5702 28.6331 26.6455 28.6331 26.7218C28.6332 26.7981 28.6167 26.8735 28.5848 26.9428C28.553 27.0122 28.5065 27.0738 28.4486 27.1235C28.3907 27.1732 28.3228 27.2097 28.2494 27.2307C28.1761 27.2517 28.0991 27.2565 28.0237 27.245C27.9483 27.2334 27.8762 27.2056 27.8126 27.1636C27.7489 27.1216 27.695 27.0663 27.6547 27.0016C27.5011 27.2507 27.4157 27.5358 27.407 27.8284C27.3983 28.1209 27.4666 28.4106 27.6051 28.6685H30.5817C30.714 28.4039 30.7802 28.1393 30.7802 27.8747ZM35.0467 27.6101L33.3599 33.1003C32.9961 34.2248 33.856 35.3824 35.0467 35.3824H37.5603C38.7509 35.3824 39.5777 34.2248 39.247 33.1003L37.5603 27.6101C37.1634 26.4195 35.4435 26.4195 35.0467 27.6101ZM31.4747 37.4991C32.8638 38.2267 34.5175 38.6567 36.3035 38.6567C38.0564 38.6567 39.71 38.2267 41.1322 37.4991C41.5952 37.2676 42.1244 37.7968 41.8267 38.2598C41.2307 39.1827 40.4129 39.9415 39.4481 40.467C38.4832 40.9924 37.4021 41.2677 36.3035 41.2677C35.2048 41.2677 34.1237 40.9924 33.1588 40.467C32.194 39.9415 31.3762 39.1827 30.7802 38.2598C30.4825 37.7968 31.0117 37.2345 31.4747 37.4991Z" fill="#8CC63E"/>
<path d="M53.2253 7.03803L54.6144 7.73257C57.161 9.02244 58.5832 11.8337 58.054 14.6449L56.2019 24.7985C56.1696 24.9935 56.1095 25.1829 56.0233 25.3608C56.5051 26.0238 56.8291 26.7882 56.9703 27.5956C57.1115 28.403 57.0663 29.232 56.8382 30.0193C56.61 30.8065 56.2049 31.5312 55.6538 32.1379C55.1027 32.7447 54.4203 33.2174 53.6585 33.52L53.2286 39.6816C52.9441 42.731 51.5418 45.3174 49.4582 47.0736C53.2941 48.5555 56.8505 50.6781 59.9756 53.3509C63.9773 56.7557 67.1906 60.9901 69.3928 65.7605C71.5949 70.5309 72.7332 75.7231 72.7287 80.9773V92.6059H0V81.0302C0 77.617 0.469644 74.3163 1.3494 71.1809C3.33039 64.038 7.43959 57.6677 13.1302 52.9177V53.05C16.558 50.1959 20.482 47.9974 24.7059 46.5642C22.8476 44.7252 21.7025 42.2861 21.4747 39.6816L21.0778 33.8938C19.9005 33.8937 18.7557 33.5071 17.8195 32.7933C16.8832 32.0795 16.2073 31.078 15.8955 29.9427C15.5837 28.8074 15.6533 27.6012 16.0936 26.5093C16.5339 25.4174 17.3205 24.5003 18.3327 23.8989L16.6459 14.6449C16.1167 11.8337 17.5389 9.02244 20.0856 7.73257L21.4747 7.03803C22.4669 6.54193 23.3599 5.91353 24.1205 5.11976L27.461 1.81241C28.3793 0.893671 29.5636 0.287414 30.8459 0.0796351C32.1282 -0.128144 33.4434 0.0731047 34.6049 0.654834C36.3908 1.28323 38.3091 1.28323 40.062 0.654834C43.1709 -0.734255 45.7837 0.390246 47.8343 2.40773L50.5463 5.11976C51.3401 5.88046 52.2331 6.54193 53.2253 7.03803ZM27.4279 85.9912C19.9268 77.7063 18.584 66.5539 18.3558 62.6413C18.3227 61.8806 18.9181 61.2191 19.6788 61.2191H21.4317C21.8285 61.2191 22.1593 60.8884 22.1262 60.4915C22.108 58.6273 22.1058 56.763 22.1196 54.8988C18.6763 56.7826 15.6375 59.3258 13.1765 62.3833L13.2956 85.9912H27.4279ZM32.2599 85.9912H40.4953C43.7682 79.5213 45.4744 72.3725 45.4761 65.1218V49.1638C44.552 49.4133 43.5989 49.5389 42.6417 49.5375H32.0582C30.4011 49.543 28.7661 49.1577 27.2857 48.413V65.3202C27.2857 72.5534 29.0154 79.6279 32.2599 85.9912ZM45.4001 85.9912H59.4993V62.3039C57.0735 59.3041 54.0893 56.8028 50.7117 54.9385C50.7183 57.2635 50.7216 59.3372 50.7018 60.4948C50.6687 60.8917 50.9994 61.2224 51.3963 61.2224H53.1492C53.9099 61.2224 54.5052 61.8839 54.4721 62.6446C54.2439 66.5539 52.9011 77.7063 45.4001 85.9912ZM23.4822 20.069C23.5986 19.8761 23.7514 19.7076 23.932 19.5729C24.0312 19.4737 26.7763 17.4231 30.7121 17.8862C31.7043 18.0184 32.3989 18.9114 32.2996 19.8706C32.1673 20.8628 31.2744 21.5573 30.3152 21.4581C27.8678 21.1604 26.2141 22.3511 26.148 22.4172C25.7841 22.6818 25.4203 22.781 25.0235 22.781C24.4612 22.781 23.932 22.5495 23.6013 22.0534L23.5748 22.0203L23.9552 27.5536L23.9651 27.5106C24.4612 25.5261 26.2802 24.0378 28.43 24.0378C30.646 24.0378 32.5311 25.6584 32.928 27.7421C32.9942 28.2051 32.6304 28.6351 32.1673 28.6351H31.9094C31.9721 28.3864 32.0032 28.1308 32.002 27.8744C32.0104 27.4883 31.9412 27.1045 31.7983 26.7457C31.6554 26.3869 31.4419 26.0605 31.1704 25.7859C30.8989 25.5113 30.5749 25.2941 30.2178 25.1472C29.8607 25.0003 29.4776 24.9267 29.0915 24.9308C28.6396 24.9305 28.1937 25.034 27.7882 25.2333C27.3827 25.4326 27.0283 25.7224 26.7525 26.0803C26.4767 26.4383 26.2868 26.8548 26.1975 27.2977C26.1081 27.7407 26.1217 28.1982 26.2372 28.6351H24.8581C24.6638 28.6346 24.4746 28.5725 24.3177 28.4579C24.1609 28.3432 24.0444 28.1818 23.9849 27.9967L24.7688 39.4038C25.1888 43.4917 28.3341 46.2302 32.0549 46.2302H42.6384C46.4088 46.2302 49.5376 43.4818 49.9245 39.4104L51.2144 21.1307C51.3542 19.1471 51.0174 17.1589 50.232 15.3321C49.4466 13.5053 48.2355 11.893 46.6999 10.6298C43.606 10.144 40.4784 9.9051 37.3467 9.91543C33.5432 9.91543 30.3913 10.2462 28.0331 10.6166C26.6295 11.7635 25.4944 13.2043 24.7081 14.8375C23.9218 16.4707 23.5033 18.2565 23.4822 20.069Z" fill="#8CC63E"/>
</svg>
