<svg width="62" height="62" viewBox="0 0 62 62" fill="none" xmlns="http://www.w3.org/2000/svg">
<path d="M24.2188 30.0312C24.9895 30.0312 25.7288 29.7251 26.2738 29.18C26.8188 28.635 27.125 27.8958 27.125 27.125C27.125 26.3542 26.8188 25.615 26.2738 25.07C25.7288 24.5249 24.9895 24.2188 24.2188 24.2188C23.448 24.2188 22.7087 24.5249 22.1637 25.07C21.6187 25.615 21.3125 26.3542 21.3125 27.125C21.3125 27.8958 21.6187 28.635 22.1637 29.18C22.7087 29.7251 23.448 30.0312 24.2188 30.0312ZM23.777 37.4596C23.6081 37.2674 23.4027 37.1105 23.1728 36.998C22.9428 36.8856 22.6929 36.8198 22.4374 36.8045C22.1819 36.7892 21.9259 36.8247 21.6842 36.9089C21.4425 36.9931 21.2199 37.1243 21.0292 37.2951C20.8385 37.4658 20.6835 37.6726 20.5732 37.9036C20.4629 38.1345 20.3995 38.385 20.3866 38.6407C20.3736 38.8963 20.4115 39.1519 20.4979 39.3928C20.5843 39.6338 20.7176 39.8552 20.8901 40.0443C22.1615 41.4675 23.7195 42.6059 25.4619 43.3846C27.2042 44.1632 29.0916 44.5647 31 44.5625C32.9084 44.5647 34.7958 44.1632 36.5381 43.3846C38.2805 42.6059 39.8385 41.4675 41.1099 40.0443C41.447 39.6606 41.619 39.1593 41.5885 38.6495C41.5579 38.1397 41.3273 37.6625 40.9468 37.3218C40.5663 36.9811 40.0667 36.8045 39.5566 36.8303C39.0465 36.8561 38.5672 37.0823 38.223 37.4596C37.3152 38.4771 36.2022 39.2909 34.9572 39.8472C33.7123 40.4036 32.3636 40.69 31 40.6875C28.1325 40.6875 25.5556 39.4436 23.777 37.4596ZM40.6875 27.125C40.6875 27.8958 40.3813 28.635 39.8363 29.18C39.2913 29.7251 38.552 30.0312 37.7812 30.0312C37.0105 30.0312 36.2712 29.7251 35.7262 29.18C35.1812 28.635 34.875 27.8958 34.875 27.125C34.875 26.3542 35.1812 25.615 35.7262 25.07C36.2712 24.5249 37.0105 24.2188 37.7812 24.2188C38.552 24.2188 39.2913 24.5249 39.8363 25.07C40.3813 25.615 40.6875 26.3542 40.6875 27.125ZM54.25 31C54.25 27.9468 53.6486 24.9234 52.4802 22.1026C51.3118 19.2818 49.5992 16.7187 47.4402 14.5598C45.2813 12.4008 42.7182 10.6882 39.8974 9.5198C37.0766 8.35138 34.0532 7.75 31 7.75C27.9468 7.75 24.9234 8.35138 22.1026 9.5198C19.2818 10.6882 16.7187 12.4008 14.5598 14.5598C12.4008 16.7187 10.6882 19.2818 9.5198 22.1026C8.35138 24.9234 7.75 27.9468 7.75 31C7.75 37.1663 10.1995 43.08 14.5598 47.4402C18.92 51.8005 24.8337 54.25 31 54.25C37.1663 54.25 43.08 51.8005 47.4402 47.4402C51.8005 43.08 54.25 37.1663 54.25 31ZM11.625 31C11.625 25.8614 13.6663 20.9333 17.2998 17.2998C20.9333 13.6663 25.8614 11.625 31 11.625C36.1386 11.625 41.0667 13.6663 44.7002 17.2998C48.3337 20.9333 50.375 25.8614 50.375 31C50.375 36.1386 48.3337 41.0667 44.7002 44.7002C41.0667 48.3337 36.1386 50.375 31 50.375C25.8614 50.375 20.9333 48.3337 17.2998 44.7002C13.6663 41.0667 11.625 36.1386 11.625 31Z" fill="#8CC63E"/>
</svg>
