<svg width="77" height="93" viewBox="0 0 77 93" fill="none" xmlns="http://www.w3.org/2000/svg">
<path d="M29.0369 24.3262C26.9012 24.3262 25.1162 25.7924 24.6381 27.7687C24.4787 28.3105 24.925 28.8843 25.4987 28.8843H26.9012C26.7854 28.4535 26.7702 28.0018 26.8568 27.5641C26.9434 27.1265 27.1294 26.7146 27.4005 26.3603C27.6716 26.006 28.0205 25.7188 28.4203 25.5208C28.8202 25.3229 29.2601 25.2195 29.7062 25.2187C31.3319 25.2187 32.6069 26.5255 32.6069 28.1193C32.6069 28.3743 32.575 28.6293 32.5112 28.8843H32.7662C33.2444 28.8843 33.595 28.4699 33.4994 27.9918C33.085 25.888 31.2362 24.3262 29.0369 24.3262ZM44.6237 24.3262C46.7594 24.3262 48.5444 25.7924 49.0225 27.7687C49.15 28.3424 48.7356 28.8843 48.1619 28.8843H46.7594C46.8752 28.4535 46.8904 28.0018 46.8038 27.5641C46.7172 27.1265 46.5312 26.7146 46.2601 26.3603C45.989 26.006 45.64 25.7188 45.2402 25.5208C44.8404 25.3229 44.4005 25.2195 43.9544 25.2187C43.5723 25.2144 43.1932 25.2865 42.8393 25.4308C42.4855 25.575 42.164 25.7885 41.8938 26.0587C41.6236 26.3289 41.4101 26.6504 41.2658 27.0042C41.1216 27.3581 41.0495 27.7372 41.0537 28.1193C41.0537 28.3743 41.0856 28.6293 41.1494 28.8843H40.8944C40.7831 28.887 40.6726 28.8643 40.5714 28.8179C40.4702 28.7715 40.3809 28.7027 40.3103 28.6167C40.2396 28.5307 40.1895 28.4297 40.1637 28.3215C40.1378 28.2132 40.137 28.1004 40.1612 27.9918C40.5756 25.888 42.3925 24.3262 44.6237 24.3262Z" fill="#8CC63E"/>
<path d="M29.7033 26.4298C29.9891 26.4268 30.2708 26.4984 30.5205 26.6374C30.7702 26.7765 30.9794 26.9782 31.1274 27.2228C31.2754 27.4673 31.3572 27.7462 31.3645 28.0319C31.3719 28.3177 31.3047 28.6004 31.1695 28.8523H28.237C28.104 28.5984 28.0387 28.3145 28.0477 28.028C28.0566 27.7415 28.1394 27.4622 28.288 27.2171C28.3276 27.2784 28.3798 27.3304 28.4412 27.3698C28.5026 27.4092 28.5717 27.4349 28.6439 27.4453C28.716 27.4557 28.7896 27.4505 28.8596 27.43C28.9296 27.4095 28.9944 27.3743 29.0496 27.3267C29.1048 27.2791 29.1492 27.2201 29.1797 27.1539C29.2102 27.0877 29.2262 27.0157 29.2265 26.9428C29.2268 26.8698 29.2115 26.7977 29.1816 26.7312C29.1517 26.6647 29.1078 26.6054 29.053 26.5573C29.2591 26.4719 29.4802 26.4286 29.7033 26.4298ZM43.9514 26.4298C43.7444 26.4293 43.5391 26.4672 43.3458 26.5413C43.4047 26.5894 43.4521 26.6499 43.4846 26.7187C43.517 26.7874 43.5338 26.8625 43.5335 26.9385C43.5332 27.0145 43.5159 27.0894 43.483 27.1579C43.45 27.2264 43.4021 27.2866 43.3429 27.3342C43.2836 27.3818 43.2145 27.4155 43.1405 27.433C43.0665 27.4504 42.9896 27.4511 42.9153 27.435C42.8411 27.4189 42.7713 27.3864 42.7113 27.3398C42.6512 27.2933 42.6022 27.234 42.568 27.1661C42.4051 27.4142 42.3114 27.7014 42.2969 27.9979C42.2823 28.2944 42.3473 28.5894 42.4852 28.8523H45.4177C45.5528 28.6004 45.62 28.3177 45.6127 28.0319C45.6053 27.7462 45.5236 27.4673 45.3755 27.2228C45.2275 26.9782 45.0184 26.7765 44.7686 26.6374C44.5189 26.4984 44.2372 26.4268 43.9514 26.4298ZM35.8233 27.8642L34.1339 33.3148C33.7833 34.4304 34.612 35.5779 35.7914 35.5779H38.2777C39.457 35.5779 40.2858 34.4304 39.9352 33.3148L38.2458 27.8642C37.8952 26.6529 36.2058 26.6529 35.8233 27.8642ZM32.0939 37.4585C33.4645 38.1917 35.0902 38.606 36.8114 38.606C38.5645 38.606 40.1583 38.1917 41.5289 37.4585C41.9752 37.2354 42.4852 37.7454 42.1983 38.1917C41.0508 39.9448 39.0745 41.1242 36.8114 41.1242C34.5483 41.1242 32.572 39.9448 31.4245 38.1917C31.1377 37.7454 31.6158 37.2035 32.0939 37.4585Z" fill="#8CC63E"/>
<path d="M52.0491 4.74774C49.1485 1.91086 44.7497 0.779297 40.1597 0.779297H33.4341C28.8441 0.779297 24.4454 1.90767 21.5447 4.74774C19.3135 6.92799 18.1022 10.9251 18.9947 15.4195L19.2115 15.394C18.7907 15.751 18.3732 16.1271 17.962 16.5192L16.8974 17.5296L18.4433 19.4517L18.4847 21.1857C18.4911 21.4407 18.5039 21.6957 18.5198 21.9507L18.5676 22.6328C17.3332 23.2231 16.3048 24.1711 15.6162 25.3534C14.9275 26.5358 14.6103 27.898 14.7059 29.2629C14.8015 30.6279 15.3053 31.9326 16.152 33.0075C16.9987 34.0824 18.1491 34.8778 19.4537 35.2904L19.7629 39.7369L19.7661 39.7784C19.9096 41.2414 20.2857 42.6089 20.8531 43.852C21.1941 44.5979 21.6053 45.2991 22.0802 45.9462L20.9391 46.4084C14.6942 49.3781 9.4236 54.0641 5.74339 59.9186C2.06319 65.773 0.125433 72.5541 0.156621 79.4691V90.6254C0.156621 91.0481 0.324533 91.4534 0.623419 91.7523C0.922306 92.0512 1.32768 92.2191 1.75037 92.2191H71.8435C71.9869 92.2191 72.1304 92.1968 72.2706 92.1554H72.2897C73.4479 92.1554 74.5586 91.6953 75.3776 90.8763C76.1965 90.0574 76.6566 88.9467 76.6566 87.7885V76.594C76.6566 76.4182 76.6459 76.2426 76.6247 76.0681V70.1552C76.6228 69.4023 76.4435 68.6605 76.1013 67.9899C75.759 67.3192 75.2636 66.7387 74.6551 66.2954C74.0465 65.852 73.3421 65.5583 72.5988 65.4381C71.8556 65.3179 71.0945 65.3746 70.3772 65.6035V62.1482C70.3772 61.8295 70.5685 61.5107 70.8554 61.3514C73.3735 60.0126 75.0629 57.367 75.0629 54.3389C75.031 51.3745 73.3416 48.7289 70.8554 47.3901C70.2497 47.0714 69.4847 47.4857 69.4847 48.187V53.1276C69.4847 54.4664 68.401 55.582 67.0622 55.5501C66.438 55.5376 65.8438 55.2796 65.4083 54.8322C64.9728 54.3848 64.7311 53.7839 64.7354 53.1595V48.187C64.7354 47.4857 63.9704 47.0395 63.3647 47.3582C62.2067 47.9782 61.2214 48.877 60.498 49.9734C59.7745 51.0697 59.3356 52.3291 59.221 53.6376V55.0688C59.4728 57.826 61.1654 60.1943 63.5241 61.4151C63.811 61.5745 64.0022 61.8932 64.0022 62.212V72.2335H61.771C61.6343 72.2342 61.4982 72.2524 61.3662 72.2877C60.5826 72.3667 59.8381 72.6687 59.221 73.1579V62.1514C57.9427 60.866 56.9995 59.2864 56.4743 57.5513C55.9491 55.8161 55.8579 53.9786 56.2088 52.2001L56.2343 52.2192C56.4439 51.1407 56.8135 50.0997 57.3308 49.1305C55.8391 48.1105 54.2772 47.1957 52.6547 46.402L52.6962 46.3446C52.2797 46.2127 51.8561 46.1042 51.4276 46.0195C52.7698 44.1932 53.5886 42.0354 53.7959 39.7784V39.7369L54.1082 35.3031C55.4216 34.8959 56.5811 34.1012 57.4349 33.0234C58.2887 31.9456 58.7968 30.6349 58.8926 29.2632C58.9884 27.8916 58.6674 26.523 57.9718 25.3369C57.2761 24.1509 56.2383 23.2027 54.9944 22.6169L55.0422 21.9475C55.0581 21.7116 55.0709 21.4757 55.0772 21.2399L55.1251 19.6397L56.824 17.5296L55.7594 16.5192C55.3592 16.1383 54.9479 15.7695 54.5258 15.4131L54.5991 15.4195C55.4916 10.9506 54.2804 6.92799 52.0491 4.74774ZM51.7367 23.5317L50.6211 39.4915C50.1462 44.2664 46.4168 47.5941 41.9129 47.5941H31.6491C30.1054 47.6047 28.5873 47.1992 27.2546 46.4201C25.9218 45.6409 24.8237 44.5171 24.0756 43.1667C23.4483 42.0328 23.062 40.7816 22.9409 39.4915L21.8252 23.5285C22.7783 23.6145 23.7632 23.4329 24.6526 22.9579L24.6876 22.9388C25.0098 23.2419 25.4374 23.4077 25.8797 23.401C26.2304 23.401 26.6129 23.3054 26.9316 23.0822C26.9954 23.0185 28.5891 21.8391 30.9797 22.1579C31.2379 22.1886 31.4997 22.1614 31.7462 22.0784C31.9926 21.9954 32.2175 21.8587 32.4045 21.678C32.5916 21.4974 32.7361 21.2774 32.8276 21.0341C32.9191 20.7907 32.9554 20.53 32.9337 20.2709C35.5061 19.8948 38.1196 19.8948 40.6921 20.2709C40.6704 20.53 40.7066 20.7907 40.7981 21.0341C40.8897 21.2774 41.0342 21.4974 41.2212 21.678C41.4083 21.8587 41.6331 21.9954 41.8796 22.0784C42.126 22.1614 42.3878 22.1886 42.646 22.1579C44.9378 21.8806 46.5029 22.9547 46.6814 23.0727L46.6941 23.0822C47.0129 23.3054 47.3635 23.4329 47.746 23.4329C48.1959 23.4238 48.6277 23.2542 48.9636 22.9547C49.837 23.4297 50.8028 23.6114 51.7367 23.5317ZM54.3664 31.612L54.7362 26.308C55.0779 26.6719 55.3407 27.1025 55.5082 27.5727C55.6756 28.043 55.7442 28.5428 55.7095 29.0407C55.6747 29.5387 55.5375 30.0241 55.3064 30.4666C55.0753 30.909 54.7553 31.299 54.3664 31.612ZM19.1924 31.5865C18.813 31.2733 18.5012 30.8862 18.2761 30.4488C18.051 30.0113 17.9172 29.5326 17.883 29.0419C17.8487 28.5511 17.9146 28.0585 18.0767 27.5939C18.2387 27.1294 18.4936 26.7028 18.8258 26.3399L19.1924 31.5865ZM44.5585 50.4916C45.7761 50.2174 46.9236 49.7584 47.9691 49.1401V62.1929C47.9691 62.2566 47.9532 62.2885 47.9436 62.3076C47.9251 62.3348 47.8998 62.3568 47.8703 62.3714C47.8409 62.387 47.808 62.3947 47.7747 62.3937C47.7525 62.3929 47.7308 62.3875 47.7109 62.3777L39.7932 55.5406C40.9076 55.0973 41.9116 54.4158 42.7348 53.5436C43.5579 52.6714 44.1804 51.6297 44.5585 50.4916ZM40.0896 50.7816H40.8865C40.4289 51.4398 39.8188 51.9775 39.1083 52.3488C38.3979 52.7201 37.6081 52.9141 36.8065 52.9141C36.0049 52.9141 35.2151 52.7201 34.5047 52.3488C33.7942 51.9775 33.1841 51.4398 32.7265 50.7816H40.0896ZM25.6566 49.1783C26.7021 49.7871 27.8464 50.2397 29.0609 50.5043C29.4362 51.6428 30.0578 52.6845 30.8815 53.5555C31.7051 54.4265 32.7105 55.1053 33.8262 55.5437L25.9116 62.3777C25.8927 62.3871 25.8721 62.3925 25.8511 62.3937C25.8178 62.3947 25.7848 62.387 25.7554 62.3714C25.7259 62.3568 25.7007 62.3348 25.6821 62.3076C25.6625 62.2727 25.6537 62.2328 25.6566 62.1929V49.1783ZM25.7554 14.9445C29.2333 13.3263 33.0228 12.4876 36.8587 12.487C40.6947 12.4865 44.4844 13.3241 47.9627 14.9414C49.5597 15.6936 51.0323 16.6339 52.4762 17.8515L52.1129 18.2978L52.1065 18.3105C51.8704 18.6043 51.5378 18.8048 51.1678 18.8766C50.7979 18.9484 50.4144 18.8867 50.0856 18.7026H50.0792C46.0322 16.4873 41.4903 15.3326 36.8766 15.3462C32.2633 15.3317 27.7213 16.4853 23.674 18.6994L23.6676 18.7058C23.3296 18.8897 22.9378 18.9493 22.5604 18.8741C22.183 18.799 21.8439 18.5939 21.6021 18.2946L21.2451 17.8484C22.6026 16.6761 24.1176 15.6998 25.7459 14.9477L25.7554 14.9414V14.9445ZM52.6229 49.9688V67.006C52.6229 67.7391 52.0491 68.3129 51.316 68.3129H22.4054C21.6722 68.3129 21.0985 67.7391 21.0985 67.006V49.8955C21.5479 49.6564 22.0069 49.4301 22.4691 49.2134V62.1929C22.4691 64.9564 25.5546 66.5279 27.7859 64.966L27.8496 64.9182L36.5324 57.418C36.6104 57.3509 36.7099 57.314 36.8129 57.314C36.9158 57.314 37.0153 57.3509 37.0934 57.418L45.7761 64.9182L45.8399 64.9628C48.0711 66.531 51.1566 64.9564 51.1566 62.1929V49.2261C51.6507 49.462 52.1416 49.7074 52.6229 49.9688ZM14.5004 54.4696V89.0316H3.34412V79.4691C3.32443 74.7493 4.30899 70.0792 6.23245 65.769C8.15591 61.4588 10.9743 57.6071 14.5004 54.4696ZM73.4372 72.0964H70.3772V69.5369C70.5001 69.2492 70.7043 69.0036 70.9648 68.8304C71.2253 68.6571 71.5307 68.5636 71.8435 68.5615C72.7169 68.5615 73.4372 69.2819 73.4372 70.1552V72.0964ZM61.771 88.9679C61.2769 88.9679 60.9295 88.5917 60.9104 88.2156C60.9086 88.0733 60.9416 87.9326 61.0066 87.806C61.0716 87.6793 61.1666 87.5704 61.2833 87.4889C61.5053 87.3408 61.6866 87.1394 61.8105 86.9031C61.9345 86.6668 61.9971 86.4031 61.9927 86.1363C61.9882 85.8695 61.9169 85.6081 61.7851 85.3761C61.6534 85.144 61.4655 84.9487 61.2387 84.8082C61.1345 84.7422 61.0495 84.6501 60.9919 84.541C60.9343 84.432 60.9062 84.3098 60.9104 84.1866C60.9104 83.938 61.0506 83.6894 61.2706 83.5491C61.496 83.4027 61.6808 83.2016 61.8076 82.9647C61.9345 82.7277 61.9994 82.4624 61.9962 82.1936C61.993 81.9248 61.9219 81.6612 61.7894 81.4273C61.657 81.1933 61.4675 80.9967 61.2387 80.8557C61.1345 80.7897 61.0495 80.6976 60.9919 80.5885C60.9343 80.4795 60.9062 80.3573 60.9104 80.2341C60.9104 79.9855 61.0506 79.7369 61.2706 79.5966C61.4922 79.4526 61.6746 79.2558 61.8013 79.0238C61.9279 78.7918 61.9949 78.532 61.9962 78.2677C61.9974 78.0034 61.9329 77.7429 61.8085 77.5097C61.6841 77.2765 61.5036 77.078 61.2833 76.9319C61.1676 76.8592 61.0725 76.758 61.0072 76.638C60.9419 76.518 60.9086 76.3832 60.9104 76.2466V76.2242C60.9199 75.8417 61.2706 75.4529 61.771 75.4529C61.878 75.453 61.9848 75.4423 62.0897 75.421H72.2897C72.8635 75.421 73.3416 75.829 73.4468 76.3709L73.4691 76.6067V87.7885C73.4691 88.1013 73.3449 88.4013 73.1237 88.6224C72.9025 88.8436 72.6025 88.9679 72.2897 88.9679H61.771ZM32.6691 77.0466C32.6691 79.3416 30.8522 81.1585 28.5572 81.1585H23.9354C21.6722 81.1585 19.8235 79.3097 19.8235 77.0466C19.8235 74.7835 21.6722 72.9347 23.9354 72.9347H28.5572C30.8204 72.9347 32.6691 74.7835 32.6691 77.0466Z" fill="#8CC63E"/>
</svg>
