<svg xmlns="http://www.w3.org/2000/svg" viewBox="0 0 100 125" x="0px" y="0px"><title>sat2007</title><g data-name="Layer 1"><path d="M79.47,50.22h0c-.26-.43-1.16-.16-1.87.28A3.32,3.32,0,0,0,77,51a4.3,4.3,0,0,0-.68-.47,3.74,3.74,0,0,0-1.1-.41c-.51-.08-.7.07-.78.22s-.1.39.24.77a3.55,3.55,0,0,0,.93.71,3.37,3.37,0,0,0,1.24.42l.17,0a3,3,0,0,0,1.38-.49,3.54,3.54,0,0,0,.91-.75C79.58,50.61,79.55,50.36,79.47,50.22Zm-4.56.62c-.19-.22-.2-.33-.19-.34s0,0,.19,0a.83.83,0,0,1,.2,0,3.16,3.16,0,0,1,1,.37,4.47,4.47,0,0,1,.6.4h0l0,0,0,0,0,0,0,0,0,0,0,0,0,0,0,0v.2h0a4.33,4.33,0,0,1-.68-.29A3.28,3.28,0,0,1,74.91,50.84ZM79,50.76a3.3,3.3,0,0,1-.81.66,3.43,3.43,0,0,1-.67.33v-.19l0,0,0,0v0l0,0,0,0,0,0,0,0,0,0,0,0h0a3.66,3.66,0,0,1,.57-.42c.77-.46,1.3-.48,1.35-.41S79.15,50.54,79,50.76Z"/><path d="M36.47,66c-.26-.43-1.15-.16-1.87.27a4.14,4.14,0,0,0-.64.49,4,4,0,0,0-.69-.47,3.74,3.74,0,0,0-1.1-.41c-.5-.08-.7.07-.78.21s-.1.4.24.78a4,4,0,0,0,.94.7A3.3,3.3,0,0,0,33.8,68L34,68a3,3,0,0,0,1.38-.49,4,4,0,0,0,.91-.75C36.59,66.35,36.56,66.1,36.47,66Zm-4.56.61c-.19-.21-.19-.32-.18-.33s.05,0,.18,0h.2a3.23,3.23,0,0,1,1,.37,3.5,3.5,0,0,1,.6.41h0l0,0,0,0,0,0,0,0,0,0,0,0v0l0,0v0l0,0v.14h0a4,4,0,0,1-.69-.3A3.41,3.41,0,0,1,31.91,66.57ZM36,66.5a3.12,3.12,0,0,1-.81.66,3.69,3.69,0,0,1-.66.33v-.13l0,0v-.06l0,0,0,0,0,0,0,0,0,0,0,0,0,0,0,0h0a3.66,3.66,0,0,1,.57-.42c.76-.47,1.3-.49,1.35-.41S36.16,66.28,36,66.5Z"/><path d="M68,62.27h-.42a.14.14,0,0,1-.14-.14.14.14,0,0,1,.15-.14c.25,0,.5,0,.74,0h0a.14.14,0,0,1,.14.14.15.15,0,0,1-.14.15Zm1.84-.15a.16.16,0,0,1-.14-.12.14.14,0,0,1,.12-.16c.25,0,.49-.1.73-.16a.15.15,0,0,1,.17.11.14.14,0,0,1-.1.17l-.75.16Zm-3.77,0h0L65.34,62a.14.14,0,0,1-.11-.17.14.14,0,0,1,.17-.11l.73.14a.13.13,0,0,1,.12.16A.14.14,0,0,1,66.11,62.12Zm-2.2-.54h0c-.24-.08-.48-.16-.72-.26a.14.14,0,0,1-.08-.18.15.15,0,0,1,.19-.08c.23.09.47.18.7.25a.14.14,0,0,1,0,.28Zm8.15-.1a.13.13,0,0,1-.13-.08.14.14,0,0,1,.07-.19,7,7,0,0,0,.67-.33.14.14,0,0,1,.14.25c-.23.12-.46.24-.69.34Zm-10.24-.79h-.07l-.67-.38a.14.14,0,0,1,0-.19.13.13,0,0,1,.19,0c.21.13.43.25.65.37a.14.14,0,0,1,.06.19A.12.12,0,0,1,61.82,60.69ZM74,60.3a.16.16,0,0,1-.11,0,.14.14,0,0,1,0-.2c.19-.16.37-.33.55-.5a.13.13,0,0,1,.2,0,.15.15,0,0,1,0,.2,7,7,0,0,1-.57.52Zm1.51-1.68a.11.11,0,0,1-.08,0,.13.13,0,0,1,0-.19c.13-.21.26-.42.38-.64a.14.14,0,0,1,.25.13,7.16,7.16,0,0,1-.39.66A.17.17,0,0,1,75.5,58.62Zm1-2h0a.13.13,0,0,1-.09-.18c.07-.23.15-.47.21-.72a.14.14,0,0,1,.17-.1.14.14,0,0,1,.1.17c-.06.26-.13.5-.21.74A.15.15,0,0,1,76.48,56.58ZM77,54.36h0a.13.13,0,0,1-.12-.15c0-.25,0-.5.06-.75a.14.14,0,0,1,.15-.13.15.15,0,0,1,.14.15c0,.25,0,.51-.07.76A.14.14,0,0,1,77,54.36Z"/><path d="M36.12,71h0a2.68,2.68,0,0,1-.76-.22.15.15,0,0,1-.07-.19.14.14,0,0,1,.19-.07,2.55,2.55,0,0,0,.68.2.13.13,0,0,1,.12.15A.14.14,0,0,1,36.12,71Zm1.5-.14a.15.15,0,0,1-.14-.1.14.14,0,0,1,.1-.18l.1,0a2.24,2.24,0,0,0,.54-.26.14.14,0,0,1,.2,0,.15.15,0,0,1,0,.2,2.09,2.09,0,0,1-.62.3l-.1,0Zm-3.33-1.07a.13.13,0,0,1-.12-.06,2.71,2.71,0,0,1-.34-.73.13.13,0,0,1,.1-.17.14.14,0,0,1,.17.1,3,3,0,0,0,.31.64.15.15,0,0,1,0,.2Zm4.92-.43-.06,0a.14.14,0,0,1-.07-.18,4.3,4.3,0,0,0,.26-.69.15.15,0,0,1,.18-.1.14.14,0,0,1,.1.18,5.41,5.41,0,0,1-.28.72A.13.13,0,0,1,39.21,69.31Zm.58-2.19h0a.14.14,0,0,1-.12-.16c0-.24.05-.49.07-.75a.14.14,0,0,1,.15-.13.15.15,0,0,1,.14.15c0,.26,0,.52-.08.76A.15.15,0,0,1,39.79,67.12Zm.12-2.27a.14.14,0,0,1-.14-.14c0-.25,0-.5,0-.76a.13.13,0,0,1,.13-.14.14.14,0,0,1,.15.13c0,.26,0,.52,0,.77a.15.15,0,0,1-.15.14Z"/><path d="M51.15,73.36a.52.52,0,0,0,.11-.32.56.56,0,0,0-.57-.57.91.91,0,0,0-.9-.71.93.93,0,0,0-.75.37.89.89,0,0,0-.77.16c-1-.16-1.63,0-1.84.45h0l-.55,1.16a.71.71,0,0,0-.07.32,9.31,9.31,0,0,0-1.63-.15c-1.81,0-3.73.52-3.73,1.48v1.29c0,1,1.92,1.48,3.73,1.48s3.73-.52,3.73-1.48v-.38c.23.13.47.26.72.37a7.63,7.63,0,0,0,2.49.74l.33,0c.61,0,1-.18,1.18-.51l.55-1.17C53.54,75.16,52.42,74.1,51.15,73.36ZM49,72.53a.18.18,0,0,0,.25-.09.57.57,0,0,1,.5-.31.55.55,0,0,1,.55.54v0a.18.18,0,0,0,.09.17.21.21,0,0,0,.19,0l.08,0a.18.18,0,0,1,.18.19.17.17,0,0,1-.13.16h0a.18.18,0,0,1-.17-.13.19.19,0,0,0-.14-.12.18.18,0,0,0-.18.07.55.55,0,0,1-.65.15.2.2,0,0,0-.25.09.54.54,0,0,1-.49.31.55.55,0,0,1-.55-.55.55.55,0,0,1,.77-.51Zm-1.43.08.37,0a1,1,0,0,0-.09.41.92.92,0,0,0,1.67.55.89.89,0,0,0,.76-.15.55.55,0,0,0,.38.16h.08c1.51.82,2.25,1.76,2.06,2.16s-1.72.41-3.5-.43-2.79-1.95-2.57-2.42C46.86,72.71,47.17,72.61,47.61,72.61Zm-3.43,1.84a8.6,8.6,0,0,1,1.73.17A3.81,3.81,0,0,0,47.2,76a5.86,5.86,0,0,1-3,.65c-2,0-3.36-.58-3.36-1.1S42.2,74.45,44.18,74.45Zm0,3.49c-2,0-3.36-.58-3.36-1.1v-.61a6,6,0,0,0,3.36.8,5.88,5.88,0,0,0,3.35-.8v.61C47.53,77.36,46.15,77.94,44.18,77.94Zm8.11-1c-.11.23-.53.33-1.14.28a7.62,7.62,0,0,1-2.36-.71C47,75.65,46,74.54,46.22,74.06l.26-.55a6,6,0,0,0,2.69,2.15,7.23,7.23,0,0,0,2.85.76,2.2,2.2,0,0,0,.53-.06Z"/><circle cx="44.38" cy="68.33" r="0.2"/><circle cx="39.48" cy="77.01" r="0.2"/><circle cx="35.57" cy="77.6" r="0.2"/><path d="M61.91,75.7l-.67-.32a.19.19,0,0,0-.25.09.18.18,0,0,0,.09.25l.67.32.08,0a.19.19,0,0,0,.08-.36Z"/><path d="M54.67,76.61a.2.2,0,1,0,.2.2A.2.2,0,0,0,54.67,76.61Z"/><path d="M59.73,75.71a.2.2,0,1,0,.2.2A.2.2,0,0,0,59.73,75.71Z"/><path d="M63.39,76a.72.72,0,0,0-.71-.7h0a1,1,0,0,0-.21-.4l.2-.42a.18.18,0,0,0-.09-.25.19.19,0,0,0-.25.08l-.15.32a.85.85,0,0,0-.25-.13,1.25,1.25,0,0,0-1.08-.64,1.21,1.21,0,0,0-.9.39h-.08l.41-1a.18.18,0,0,0-.1-.25.19.19,0,0,0-.24.1l-.47,1.13a1.17,1.17,0,0,0-.26,0,1.43,1.43,0,0,0-2.52,0l-.89-1a.19.19,0,0,0-.26,0,.2.2,0,0,0,0,.27l1,1.22s0,0,0,0a1.21,1.21,0,0,0-.68.33.19.19,0,0,0-.19-.17.2.2,0,1,0,0,.4h0a1.23,1.23,0,0,0,1,1.89,1.17,1.17,0,0,0,.52-.12,1.21,1.21,0,0,0,1.46-.32,1.41,1.41,0,0,0,.92.34,1.48,1.48,0,0,0,1.1-.52,1.18,1.18,0,0,0,.81.3,1.24,1.24,0,0,0,.78-.28.7.7,0,0,0,.4.12.68.68,0,0,0,.52-.24h.07a.25.25,0,0,0,.26-.26A.26.26,0,0,0,63.39,76Zm-.71.34a.32.32,0,0,1-.26-.12.19.19,0,0,0-.14-.07.18.18,0,0,0-.15.07.85.85,0,0,1-.63.29.84.84,0,0,1-.68-.35.2.2,0,0,0-.16-.07.2.2,0,0,0-.16.09,1,1,0,0,1-.91.54,1.06,1.06,0,0,1-.8-.37.18.18,0,0,0-.17-.06.17.17,0,0,0-.14.09.86.86,0,0,1-.74.44.92.92,0,0,1-.43-.11.17.17,0,0,0-.1,0,.16.16,0,0,0-.09,0,1,1,0,0,1-.43.11.85.85,0,0,1,0-1.7h0a.2.2,0,0,0,.13-.06l.26.31a.74.74,0,0,0-.19.5.2.2,0,0,0,.19.19.19.19,0,0,0,.19-.19.41.41,0,0,1,.41-.41.4.4,0,0,1,.28.12.18.18,0,0,0,.27,0,.17.17,0,0,0,0-.26.76.76,0,0,0-.55-.23.88.88,0,0,0-.29,0L57,74.61a1,1,0,0,1,1-.71,1.05,1.05,0,0,1,1,.66.22.22,0,0,0,.1.11.19.19,0,0,0,.15,0,1,1,0,0,1,.76,0,.2.2,0,0,0,.22-.06.81.81,0,0,1,.68-.35.85.85,0,0,1,.77.49.25.25,0,0,0,.12.11.85.85,0,0,1,.61.7.22.22,0,0,0,.08.13.18.18,0,0,0,.16,0h.1a.33.33,0,0,1,0,.66Z"/><path d="M71.82,55.38l-5.91-16.3a3.9,3.9,0,0,0-2.8-2.75l-23-5.85a3.88,3.88,0,0,0-4.73,2.81l-5.86,23A3.91,3.91,0,0,0,32.33,61l8.41,2.12a2.39,2.39,0,0,0,1.77,2.6l.79.2a2.3,2.3,0,0,0,.58.07,2.36,2.36,0,0,0,2.21-1.51l.93.24c.15,1.31.6,2.16,1.2,2.2l1.29.09h0c.47,0,.9-.48,1.22-1.33l4.57,1.17a4,4,0,0,0,1,.12,3.9,3.9,0,0,0,3.77-2.93l1.62-6.38,6.25,1.93h0a3.42,3.42,0,0,0,.83.1,3.35,3.35,0,0,0,1.55-.38A3.23,3.23,0,0,0,71.82,55.38Zm-27,8h0l-.12.46a.88.88,0,0,1-.39.53.83.83,0,0,1-.65.09l-.79-.2a.79.79,0,0,1-.52-.39.87.87,0,0,1-.1-.65l.12-.46.86-3.38,2.45.62Zm3.42,3.17c-.32,0-.68-.62-.83-1.72l.92.24a3.72,3.72,0,0,0,.53,1.52Zm1.28.09c-.28,0-.62-.53-.79-1.47l1.66.43C50.12,66.36,49.78,66.69,49.53,66.67Zm9.07-3a2.37,2.37,0,0,1-2.89,1.71l-9.23-2.36.86-3.39a.75.75,0,0,0-.54-.92l-3.92-1a.72.72,0,0,0-.57.09.77.77,0,0,0-.35.46l-.86,3.39-8.4-2.12a2.38,2.38,0,0,1-1.46-1.09A2.34,2.34,0,0,1,31,56.67l5.86-23a2.36,2.36,0,0,1,1.09-1.46,2.4,2.4,0,0,1,1.8-.26l23,5.86a2.38,2.38,0,0,1,1.72,2.89ZM69.65,58a1.8,1.8,0,0,1-1.29.15l-6.29-1.94,1-3.83,4.82,1.45h.06a.19.19,0,0,0,.18-.13.2.2,0,0,0-.13-.24L63.14,52,64,48.85l2.52.76h0a.18.18,0,0,0,.18-.13.2.2,0,0,0-.13-.24L64,48.48l1.51-5.94L70.4,55.89A1.73,1.73,0,0,1,69.65,58Z"/></g><text x="0" y="115" fill="#000000" font-size="5px" font-weight="bold" font-family="'Helvetica Neue', Helvetica, Arial-Unicode, Arial, Sans-serif">Created by Pelin Kahraman</text><text x="0" y="120" fill="#000000" font-size="5px" font-weight="bold" font-family="'Helvetica Neue', Helvetica, Arial-Unicode, Arial, Sans-serif">from the Noun Project</text></svg>